<svg xmlns="http://www.w3.org/2000/svg" width="340" height="330" viewBox="0 0 340 330" fill="none">
  <path d="M 176.0 302.5 L 146.0 300.5 L 138.0 297.5 L 132.0 292.5 L 116.0 290.5 L 106.0 282.5 L 97.0 279.5 L 91.0 273.5 L 82.0 269.5 L 76.0 262.5 L 71.0 260.5 L 58.5 247.0 L 55.5 239.0 L 48.5 231.0 L 44.5 218.0 L 38.5 210.0 L 36.5 188.0 L 30.5 172.0 L 30.5 152.0 L 36.5 137.0 L 38.5 114.0 L 46.5 104.0 L 48.5 92.0 L 56.5 84.0 L 58.5 79.0 L 78.0 59.5 L 84.0 56.5 L 90.0 48.5 L 96.0 46.5 L 103.0 39.5 L 119.0 35.5 L 124.0 30.5 L 129.0 28.5 L 152.0 26.5 L 161.0 23.5 L 178.0 23.5 L 189.0 26.5 L 216.0 28.5 L 228.0 36.5 L 240.0 39.5 L 246.0 45.5 L 256.0 49.5 L 262.0 56.5 L 268.0 59.5 L 288.5 84.0 L 292.5 94.0 L 300.5 103.0 L 302.5 118.0 L 310.5 130.0 L 312.5 150.0 L 311.5 188.0 L 309.5 196.0 L 302.5 206.0 L 300.5 220.0 L 293.5 229.0 L 290.5 238.0 L 283.5 244.0 L 281.5 249.0 L 273.5 258.0 L 260.0 270.5 L 254.0 273.5 L 248.0 280.5 L 240.0 283.5 L 231.0 290.5 L 215.0 293.5 L 209.0 298.5 L 203.0 300.5 L 176.0 302.5 Z
    M 189.5 287.0 L 198.0 286.5 L 212.0 278.5 L 225.0 276.5 L 233.0 269.5 L 243.0 266.5 L 250.0 258.5 L 255.0 256.5 L 276.5 233.0 L 279.5 223.0 L 287.5 214.0 L 288.5 204.0 L 296.5 193.0 L 296.5 128.0 L 289.5 120.0 L 285.5 105.0 L 280.5 101.0 L 276.5 92.0 L 265.5 78.0 L 234.0 52.5 L 222.0 49.5 L 212.0 41.5 L 198.0 41.5 L 179.0 38.5 L 136.0 41.5 L 130.0 43.5 L 123.0 49.5 L 110.0 53.5 L 102.0 60.5 L 95.0 62.5 L 63.5 95.0 L 59.5 108.0 L 51.5 118.0 L 50.5 132.0 L 43.5 153.0 L 42.5 172.0 L 50.5 188.0 L 52.5 204.0 L 59.5 213.0 L 62.5 224.0 L 70.5 232.0 L 73.5 239.0 L 81.5 248.0 L 102.0 266.5 L 113.0 270.5 L 120.0 276.5 L 134.0 279.5 L 145.0 286.5 L 189.5 287.0 Z
    M 163.0 217.5 L 156.0 216.5 L 153.5 214.0 L 156.5 201.0 L 186.5 172.0 L 193.5 161.0 L 192.5 155.0 L 185.5 146.0 L 162.0 128.5 L 156.5 121.0 L 154.5 117.0 L 155.5 111.0 L 159.0 107.5 L 166.0 106.5 L 169.0 107.5 L 212.5 150.0 L 217.5 159.0 L 217.5 166.0 L 187.0 193.5 L 167.0 215.5 L 163.0 217.5 Z" fill="#b3905b" fill-rule="evenodd" clip-rule="evenodd"/>
</svg>
