<?xml version="1.0" encoding="UTF-8" standalone="no"?>
<!-- Created with Inkscape (http://www.inkscape.org/) -->

<svg
   width="162.76926mm"
   height="8.5844889mm"
   viewBox="0 0 162.76926 8.5844889"
   version="1.1"
   id="svg1"
   xml:space="preserve"
   xmlns="http://www.w3.org/2000/svg"
   xmlns:svg="http://www.w3.org/2000/svg"><defs
     id="defs1" /><g
     id="layer1"
     transform="translate(-19.537203,-76.809265)"><g
       id="g6"><path
         id="path3"
         style="fill:#d4aa00;stroke:#000000;stroke-width:0.34791;stroke-opacity:0.0933735"
         d="m 91.952595,80.350107 -0.5926,0.41129 H 19.711159 v 0.94187 h 71.648836 l 0.5926,0.41129 2.51525,-0.88222 z" /><path
         id="path4"
         style="fill:#d4af37;fill-opacity:1;stroke-width:1.00995"
         d="m 99.068372,76.809265 c -1.51492,0 -3.030306,1.009961 -3.030306,2.524911 0,2.01992 3.029896,4.039658 5.049824,6.059578 2.01988,-2.01992 5.04982,-4.039658 5.04982,-6.059578 0,-1.51495 -1.51484,-2.524911 -3.02979,-2.524911 -1.00994,0 -2.02003,0.707173 -2.02003,1.515153 0,-0.80798 -1.00958,-1.515153 -2.019518,-1.515153 z m 0.645955,1.373043 c 0.686873,0 1.373563,0.480909 1.373563,1.030428 0,-0.549519 0.68719,-1.030428 1.37407,-1.030428 1.03034,0 2.06034,0.686868 2.06034,1.717208 0,1.373778 -2.06066,2.747417 -3.43441,4.121195 -1.373788,-1.373778 -3.434419,-2.747417 -3.434419,-4.121195 0,-1.03034 1.030537,-1.717208 2.060856,-1.717208 z" /><path
         id="path5"
         style="fill:#d4aa00;stroke:#000000;stroke-width:0.34791;stroke-opacity:0.0933735"
         d="m 109.89085,80.350107 0.5926,0.41129 h 71.64906 v 0.94187 h -71.64906 l -0.5926,0.41129 -2.51527,-0.88222 z" /></g></g></svg>
