<?xml version="1.0" encoding="UTF-8" standalone="no"?>
<!-- Created with Inkscape (http://www.inkscape.org/) -->

<svg
   width="162.76926mm"
   height="8.5846186mm"
   viewBox="0 0 162.76926 8.5846186"
   version="1.1"
   id="svg1"
   xml:space="preserve"
   xmlns="http://www.w3.org/2000/svg"
   xmlns:svg="http://www.w3.org/2000/svg"><defs
     id="defs1" /><g
     id="layer1"
     transform="translate(-19.537204,-94.59347)"><g
       id="g2"
       transform="translate(-36.091505,-5.230653)"><path
         id="rect1"
         style="fill:#d4aa00;stroke:#000000;stroke-width:0.34791;stroke-opacity:0.0933735"
         d="m 128.0441,103.36498 -0.5926,0.41129 H 55.802664 v 0.94187 H 127.4515 l 0.5926,0.41129 2.51525,-0.88222 z" /><path
         d="m 137.17954,108.40875 c -2.01992,-2.01992 -5.04979,-4.03981 -5.04979,-6.05973 0,-1.51495 1.51495,-2.524892 3.02987,-2.524892 1.00994,0 2.01992,0.706972 2.01992,1.514952 0,-0.80798 1.00994,-1.514952 2.01988,-1.514952 1.51495,0 3.02983,1.009942 3.02983,2.524892 0,2.01992 -3.02983,4.03981 -5.04971,6.05973 z"
         fill="#d4af37"
         id="path2-5-9"
         style="stroke-width:1.00995" /><path
         id="path2"
         style="fill:#d4aa00;stroke:#000000;stroke-width:0.34791;stroke-opacity:0.0933735"
         d="m 145.98235,103.36498 0.5926,0.41129 h 71.64907 v 0.94187 h -71.64907 l -0.5926,0.41129 -2.51527,-0.88222 z" /></g></g></svg>
