<svg xmlns="http://www.w3.org/2000/svg" width="570" height="520" viewBox="0 0 570 520" fill="none">
  <path d="M 491.0 464.5 L 471.0 460.5 L 457.0 452.5 L 450.0 451.5 L 436.0 444.5 L 421.0 440.5 L 413.0 433.5 L 401.0 429.5 L 393.0 422.5 L 379.0 422.5 L 362.0 431.5 L 342.0 433.5 L 330.0 438.5 L 314.0 441.5 L 250.0 441.5 L 238.0 439.5 L 219.0 432.5 L 205.0 430.5 L 193.0 422.5 L 174.0 418.5 L 159.0 422.5 L 148.0 430.5 L 140.0 432.5 L 128.0 440.5 L 114.0 442.5 L 99.0 449.5 L 90.0 449.5 L 85.0 446.5 L 82.5 441.0 L 82.5 435.0 L 88.5 418.0 L 95.5 406.0 L 98.5 390.0 L 105.5 376.0 L 105.5 368.0 L 97.5 353.0 L 79.5 329.0 L 75.5 316.0 L 68.5 306.0 L 66.5 292.0 L 59.5 275.0 L 57.5 265.0 L 57.5 212.0 L 60.5 198.0 L 65.5 189.0 L 67.5 174.0 L 76.5 158.0 L 77.5 152.0 L 84.5 142.0 L 88.5 131.0 L 96.5 124.0 L 107.5 109.0 L 127.0 89.5 L 134.0 85.5 L 151.0 69.5 L 159.0 66.5 L 172.0 57.5 L 178.0 56.5 L 191.0 48.5 L 206.0 45.5 L 217.0 39.5 L 244.0 36.5 L 265.0 31.5 L 292.0 31.5 L 312.0 35.5 L 339.0 37.5 L 360.0 46.5 L 374.0 48.5 L 384.0 55.5 L 395.0 58.5 L 404.0 65.5 L 413.0 69.5 L 436.0 87.5 L 458.5 111.0 L 479.5 141.0 L 483.5 151.0 L 490.5 160.0 L 502.5 201.0 L 505.5 247.0 L 500.5 287.0 L 493.5 302.0 L 490.5 317.0 L 484.5 326.0 L 479.5 339.0 L 472.5 346.0 L 464.5 363.0 L 473.5 397.0 L 480.5 409.0 L 482.5 419.0 L 490.5 433.0 L 491.5 440.0 L 500.5 454.0 L 499.5 459.0 L 491.0 464.5 Z
    M 464.5 436.0 L 467.5 432.0 L 466.5 424.0 L 458.5 409.0 L 455.5 393.0 L 448.5 380.0 L 446.5 353.0 L 454.5 343.0 L 459.5 332.0 L 464.5 327.0 L 469.5 313.0 L 475.5 305.0 L 478.5 288.0 L 485.5 272.0 L 485.5 204.0 L 478.5 186.0 L 475.5 171.0 L 456.5 135.0 L 416.0 92.5 L 411.0 90.5 L 404.0 83.5 L 394.0 79.5 L 386.0 72.5 L 375.0 69.5 L 366.0 63.5 L 350.0 60.5 L 331.0 52.5 L 293.0 48.5 L 246.0 50.5 L 230.0 52.5 L 212.0 60.5 L 197.0 63.5 L 186.0 70.5 L 174.0 74.5 L 168.0 80.5 L 158.0 84.5 L 135.0 102.5 L 111.5 126.0 L 103.5 137.0 L 100.5 146.0 L 93.5 154.0 L 90.5 167.0 L 83.5 178.0 L 79.5 201.0 L 73.5 217.0 L 72.5 239.0 L 73.5 254.0 L 80.5 275.0 L 84.5 297.0 L 90.5 307.0 L 93.5 317.0 L 103.5 333.0 L 120.5 353.0 L 122.5 359.0 L 120.5 388.0 L 111.5 410.0 L 110.5 421.0 L 113.0 423.5 L 117.0 424.5 L 133.0 417.5 L 142.0 416.5 L 150.0 409.5 L 173.0 399.5 L 185.0 400.5 L 194.0 406.5 L 204.0 408.5 L 219.0 416.5 L 236.0 418.5 L 261.0 425.5 L 283.0 426.5 L 317.0 424.5 L 335.0 418.5 L 353.0 416.5 L 370.0 407.5 L 387.0 404.5 L 400.0 407.5 L 412.0 415.5 L 420.0 417.5 L 435.0 426.5 L 447.0 430.5 L 453.0 435.5 L 464.5 436.0 Z
    M 285.0 338.5 L 280.0 338.5 L 274.0 335.5 L 263.0 322.5 L 242.0 309.5 L 230.0 299.5 L 190.5 260.0 L 184.5 246.0 L 178.5 238.0 L 176.5 228.0 L 177.5 194.0 L 189.5 177.0 L 209.0 158.5 L 220.0 155.5 L 244.0 156.5 L 250.0 158.5 L 258.0 165.5 L 267.0 168.5 L 275.0 174.5 L 283.0 174.5 L 306.0 157.5 L 344.0 157.5 L 349.0 159.5 L 364.5 172.0 L 371.5 180.0 L 380.5 196.0 L 381.5 229.0 L 379.5 237.0 L 373.5 246.0 L 368.5 260.0 L 349.0 281.5 L 333.0 293.5 L 328.0 299.5 L 306.0 314.5 L 292.5 328.0 L 289.5 335.0 L 285.0 338.5 Z
    M 283.5 310.0 L 293.0 305.5 L 298.0 299.5 L 304.0 296.5 L 310.0 289.5 L 316.0 286.5 L 342.0 264.5 L 355.5 248.0 L 366.5 224.0 L 365.5 206.0 L 356.5 190.0 L 349.0 182.5 L 335.0 173.5 L 313.0 173.5 L 296.0 182.5 L 289.0 190.5 L 280.0 193.5 L 274.0 193.5 L 267.0 190.5 L 244.0 173.5 L 222.0 173.5 L 216.0 176.5 L 203.5 188.0 L 194.5 204.0 L 193.5 226.0 L 195.5 232.0 L 205.5 252.0 L 226.0 274.5 L 239.0 285.5 L 248.0 290.5 L 252.0 295.5 L 259.0 298.5 L 266.0 305.5 L 277.0 310.5 L 283.5 310.0 Z" fill="#bf905e" fill-rule="evenodd" clip-rule="evenodd"/>
</svg>
