<svg xmlns="http://www.w3.org/2000/svg" width="1254" height="1254" viewBox="0 0 1254 1254" fill="none">
  <path d="M 977.0 1064.5 L 674.0 1064.5 L 666.0 1060.5 L 660.5 1055.0 L 656.5 1043.0 L 656.5 1026.0 L 661.5 1003.0 L 671.5 982.0 L 679.5 970.0 L 710.5 933.0 L 723.5 914.0 L 730.5 897.0 L 731.5 875.0 L 725.5 858.0 L 709.0 840.5 L 691.0 830.5 L 653.0 817.5 L 638.0 807.5 L 623.0 816.5 L 590.0 830.5 L 576.0 838.5 L 557.5 855.0 L 549.5 866.0 L 541.5 882.0 L 534.5 909.0 L 532.5 930.0 L 532.5 1004.0 L 525.0 1013.5 L 520.0 1015.5 L 512.0 1015.5 L 506.0 1012.5 L 499.5 1002.0 L 499.5 930.0 L 503.5 894.0 L 513.5 863.0 L 526.5 841.0 L 545.0 820.5 L 568.0 804.5 L 606.0 787.5 L 615.5 780.0 L 617.5 773.0 L 602.0 758.5 L 545.0 723.5 L 495.0 688.5 L 482.0 684.5 L 462.0 685.5 L 426.0 693.5 L 398.0 703.5 L 367.0 718.5 L 336.0 738.5 L 312.0 758.5 L 296.5 775.0 L 278.5 800.0 L 268.5 820.0 L 260.5 844.0 L 253.5 888.0 L 252.5 993.0 L 253.5 1011.0 L 257.5 1029.0 L 261.0 1031.5 L 616.0 1031.5 L 626.0 1036.5 L 630.5 1044.0 L 630.5 1052.0 L 627.5 1058.0 L 618.0 1064.5 L 254.0 1064.5 L 241.0 1059.5 L 230.5 1049.0 L 224.5 1035.0 L 220.5 1011.0 L 219.5 900.0 L 222.5 865.0 L 226.5 842.0 L 233.5 818.0 L 245.5 791.0 L 260.5 767.0 L 281.5 742.0 L 318.0 710.5 L 347.0 691.5 L 374.0 677.5 L 403.0 665.5 L 432.5 656.0 L 389.5 606.0 L 369.5 579.0 L 345.5 540.0 L 332.5 513.0 L 321.5 481.0 L 314.5 446.0 L 312.5 424.0 L 312.5 391.0 L 315.5 363.0 L 322.5 330.0 L 331.5 303.0 L 344.5 276.0 L 364.5 246.0 L 390.0 219.5 L 409.0 205.5 L 437.0 191.5 L 464.0 183.5 L 485.0 180.5 L 516.0 180.5 L 533.0 182.5 L 557.0 188.5 L 586.0 201.5 L 612.0 219.5 L 638.0 245.5 L 673.0 211.5 L 706.0 192.5 L 726.0 185.5 L 746.0 181.5 L 794.0 181.5 L 830.0 190.5 L 844.0 196.5 L 869.0 211.5 L 896.5 236.0 L 919.5 266.0 L 941.5 311.0 L 953.5 356.0 L 956.5 379.0 L 957.5 418.0 L 951.5 465.0 L 945.5 488.0 L 932.5 523.0 L 907.5 570.0 L 874.5 615.0 L 834.5 654.0 L 839.0 656.5 L 862.0 661.5 L 894.0 673.5 L 920.0 686.5 L 957.0 710.5 L 982.0 731.5 L 1007.5 760.0 L 1023.5 785.0 L 1034.5 810.0 L 1046.5 857.0 L 1050.5 897.0 L 1050.5 957.0 L 1048.5 983.0 L 1043.5 1011.0 L 1032.5 1040.0 L 1020.0 1053.5 L 1008.0 1059.5 L 977.0 1064.5 Z
    M 636.5 740.0 L 655.0 722.5 L 683.0 702.5 L 718.0 681.5 L 757.5 661.0 L 686.0 573.5 L 664.0 594.5 L 646.0 604.5 L 625.0 605.5 L 606.0 597.5 L 496.5 486.0 L 493.5 479.0 L 495.5 468.0 L 500.0 462.5 L 506.0 459.5 L 514.0 459.5 L 519.0 461.5 L 624.0 568.5 L 631.0 572.5 L 636.0 572.5 L 642.0 569.5 L 654.5 557.0 L 743.0 462.5 L 749.0 459.5 L 757.0 459.5 L 762.0 461.5 L 769.5 471.0 L 769.5 480.0 L 767.5 485.0 L 708.5 548.0 L 772.5 628.0 L 790.0 646.5 L 792.0 646.5 L 813.0 629.5 L 839.5 604.0 L 867.5 570.0 L 889.5 535.0 L 911.5 484.0 L 922.5 435.0 L 923.5 386.0 L 917.5 349.0 L 907.5 317.0 L 887.5 279.0 L 862.0 249.5 L 834.0 229.5 L 803.0 217.5 L 783.0 214.5 L 756.0 214.5 L 721.0 222.5 L 703.0 231.5 L 689.0 241.5 L 663.5 267.0 L 649.0 285.5 L 638.0 289.5 L 631.0 288.5 L 626.0 285.5 L 601.5 256.0 L 583.0 239.5 L 555.0 223.5 L 539.0 218.5 L 515.0 214.5 L 486.0 214.5 L 454.0 221.5 L 421.0 238.5 L 393.5 264.0 L 376.5 288.0 L 361.5 320.0 L 352.5 349.0 L 346.5 388.0 L 346.5 424.0 L 348.5 445.0 L 352.5 467.0 L 361.5 495.0 L 379.5 532.0 L 405.5 572.0 L 437.5 612.0 L 469.0 644.5 L 478.0 649.5 L 496.0 652.5 L 514.0 660.5 L 559.0 692.5 L 616.0 727.5 L 634.0 740.5 L 636.5 740.0 Z
    M 729.5 1032.0 L 977.0 1031.5 L 996.0 1028.5 L 1003.5 1023.0 L 1012.5 998.0 L 1017.5 957.0 L 1017.5 898.0 L 1014.5 866.0 L 1008.5 837.0 L 998.5 809.0 L 979.5 778.0 L 952.0 749.5 L 920.0 725.5 L 883.0 705.5 L 849.0 692.5 L 823.0 686.5 L 796.0 684.5 L 786.0 686.5 L 769.0 693.5 L 722.0 717.5 L 688.0 739.5 L 658.5 765.0 L 655.5 775.0 L 663.0 784.5 L 705.0 800.5 L 728.0 813.5 L 748.5 833.0 L 757.5 847.0 L 761.5 858.0 L 764.5 872.0 L 764.5 896.0 L 757.5 920.0 L 744.5 943.0 L 701.5 997.0 L 693.5 1013.0 L 689.5 1028.0 L 691.0 1031.5 L 729.5 1032.0 Z" fill="#f8ab2a" fill-rule="evenodd" clip-rule="evenodd"/>
</svg>
