<svg xmlns="http://www.w3.org/2000/svg" width="370" height="290" viewBox="0 0 370 290" fill="none">
  <path d="M 236.0 241.5 L 223.0 241.5 L 219.0 239.5 L 213.0 231.5 L 205.0 228.5 L 194.0 220.5 L 182.0 222.5 L 176.0 229.5 L 165.0 232.5 L 157.0 240.5 L 135.0 240.5 L 127.0 232.5 L 120.0 229.5 L 114.0 221.5 L 109.0 219.5 L 101.0 211.5 L 94.0 208.5 L 79.5 195.0 L 76.5 186.0 L 69.5 179.0 L 67.5 171.0 L 58.5 160.0 L 57.5 147.0 L 50.5 138.0 L 48.5 131.0 L 49.5 102.0 L 57.5 92.0 L 57.5 84.0 L 60.5 77.0 L 67.5 70.0 L 69.5 64.0 L 73.0 60.5 L 81.0 57.5 L 88.0 49.5 L 103.0 47.5 L 108.0 41.5 L 111.0 40.5 L 137.0 39.5 L 145.0 41.5 L 151.0 46.5 L 165.0 48.5 L 173.0 56.5 L 178.0 58.5 L 185.0 66.5 L 194.0 67.5 L 202.0 58.5 L 208.0 56.5 L 215.0 49.5 L 234.0 46.5 L 244.0 41.5 L 260.0 40.5 L 276.0 47.5 L 286.0 47.5 L 291.0 49.5 L 308.5 65.0 L 312.5 73.0 L 320.5 81.0 L 322.5 95.0 L 328.5 106.0 L 327.5 125.0 L 321.5 134.0 L 320.5 155.0 L 312.5 164.0 L 308.5 176.0 L 302.5 181.0 L 299.5 188.0 L 292.5 193.0 L 289.5 199.0 L 274.0 211.5 L 266.0 220.5 L 259.0 222.5 L 254.0 228.5 L 246.0 231.5 L 236.0 241.5 Z
    M 232.5 227.0 L 235.0 226.5 L 241.0 219.5 L 251.0 216.5 L 275.0 196.5 L 295.5 171.0 L 299.5 160.0 L 306.5 154.0 L 309.5 137.0 L 317.5 124.0 L 316.5 107.0 L 310.5 99.0 L 306.5 83.0 L 301.0 79.5 L 297.5 73.0 L 285.0 61.5 L 276.0 59.5 L 265.0 51.5 L 243.0 50.5 L 235.0 57.5 L 217.0 63.5 L 212.0 69.5 L 202.5 76.0 L 198.5 86.0 L 195.0 89.5 L 191.0 89.5 L 180.5 81.0 L 176.0 72.5 L 169.0 69.5 L 163.0 62.5 L 150.0 59.5 L 141.0 51.5 L 105.0 48.5 L 101.0 57.5 L 89.0 62.5 L 72.5 81.0 L 69.5 92.0 L 61.5 103.0 L 61.5 136.0 L 70.5 149.0 L 71.5 161.0 L 78.5 168.0 L 81.5 177.0 L 113.0 207.5 L 118.0 209.5 L 124.0 216.5 L 131.0 219.5 L 138.0 226.5 L 154.0 227.5 L 162.0 219.5 L 172.5 214.0 L 174.5 206.0 L 164.0 197.5 L 150.5 182.0 L 146.5 170.0 L 140.5 164.0 L 138.5 156.0 L 138.5 146.0 L 140.5 141.0 L 152.0 126.5 L 160.0 119.5 L 165.0 117.5 L 212.0 117.5 L 223.0 119.5 L 240.5 131.0 L 242.5 137.0 L 241.5 153.0 L 239.5 163.0 L 232.5 171.0 L 229.5 181.0 L 208.5 202.0 L 207.5 213.0 L 209.5 217.0 L 220.0 226.5 L 232.5 227.0 Z
    M 196.5 198.0 L 205.5 189.0 L 209.5 181.0 L 216.5 176.0 L 219.5 169.0 L 227.5 163.0 L 227.5 143.0 L 222.5 136.0 L 216.0 131.5 L 166.0 131.5 L 151.5 146.0 L 151.5 164.0 L 159.5 170.0 L 161.5 176.0 L 179.5 192.0 L 183.0 197.5 L 196.5 198.0 Z" fill="#a98253" fill-rule="evenodd" clip-rule="evenodd"/>
</svg>
