<svg xmlns="http://www.w3.org/2000/svg" width="550" height="560" viewBox="0 0 550 560" fill="none">
  <path d="M 432.0 501.5 L 304.0 501.5 L 290.0 499.5 L 135.0 501.5 L 126.0 498.5 L 108.5 485.0 L 105.5 472.0 L 104.5 455.0 L 103.5 297.0 L 105.5 268.0 L 96.0 254.5 L 82.0 251.5 L 77.5 248.0 L 75.5 243.0 L 74.5 187.0 L 76.5 175.0 L 80.5 167.0 L 93.0 157.5 L 139.0 155.5 L 166.0 156.5 L 170.5 153.0 L 167.5 144.0 L 159.5 137.0 L 157.5 133.0 L 150.5 111.0 L 150.5 101.0 L 159.5 79.0 L 170.0 67.5 L 175.0 65.5 L 180.0 60.5 L 199.0 56.5 L 210.0 56.5 L 223.0 59.5 L 229.0 65.5 L 240.0 69.5 L 259.0 85.5 L 270.5 98.0 L 280.5 117.0 L 285.0 119.5 L 294.5 113.0 L 298.5 104.0 L 308.5 91.0 L 333.0 69.5 L 344.0 65.5 L 355.0 58.5 L 372.0 56.5 L 390.0 57.5 L 410.5 71.0 L 420.5 83.0 L 423.5 95.0 L 421.5 125.0 L 412.5 140.0 L 404.5 149.0 L 403.5 155.0 L 408.0 157.5 L 481.0 157.5 L 488.0 160.5 L 500.5 171.0 L 502.5 176.0 L 501.5 241.0 L 496.0 249.5 L 477.0 256.5 L 470.5 265.0 L 469.5 477.0 L 463.5 487.0 L 451.0 497.5 L 444.0 500.5 L 432.0 501.5 Z
    M 267.5 157.0 L 273.0 156.5 L 276.5 153.0 L 275.5 134.0 L 267.5 121.0 L 261.5 116.0 L 255.5 105.0 L 234.0 83.5 L 216.0 73.5 L 196.0 71.5 L 188.0 73.5 L 173.5 86.0 L 168.5 101.0 L 168.5 110.0 L 171.5 121.0 L 184.5 140.0 L 195.0 150.5 L 208.0 156.5 L 267.5 157.0 Z
    M 350.5 156.0 L 372.0 154.5 L 384.0 147.5 L 395.5 135.0 L 398.5 127.0 L 405.5 118.0 L 407.5 109.0 L 406.5 94.0 L 396.0 81.5 L 384.0 73.5 L 361.0 73.5 L 341.0 83.5 L 323.5 101.0 L 310.5 119.0 L 303.5 125.0 L 295.5 138.0 L 294.5 150.0 L 299.0 155.5 L 302.0 156.5 L 350.5 156.0 Z
    M 268.5 240.0 L 276.5 234.0 L 276.5 181.0 L 270.0 173.5 L 212.0 172.5 L 199.0 170.5 L 183.0 170.5 L 176.0 172.5 L 105.0 172.5 L 98.0 175.5 L 91.5 185.0 L 90.5 226.0 L 92.5 233.0 L 97.0 236.5 L 248.0 237.5 L 261.0 240.5 L 268.5 240.0 Z
    M 448.5 238.0 L 477.0 237.5 L 483.0 235.5 L 485.5 232.0 L 485.5 186.0 L 479.5 176.0 L 475.0 172.5 L 314.0 172.5 L 305.0 174.5 L 301.5 179.0 L 301.5 234.0 L 305.0 237.5 L 448.5 238.0 Z
    M 319.5 485.0 L 432.0 484.5 L 445.0 481.5 L 450.5 475.0 L 453.5 461.0 L 453.5 265.0 L 449.5 258.0 L 444.0 253.5 L 434.0 255.5 L 406.0 256.5 L 371.0 254.5 L 319.0 255.5 L 305.0 253.5 L 290.0 261.5 L 283.0 262.5 L 266.0 251.5 L 247.0 254.5 L 197.0 255.5 L 126.0 252.5 L 122.5 256.0 L 120.5 263.0 L 120.5 466.0 L 122.5 476.0 L 126.0 479.5 L 139.0 485.5 L 246.0 483.5 L 267.0 485.5 L 271.0 483.5 L 276.5 473.0 L 276.5 453.0 L 280.5 438.0 L 279.5 435.0 L 260.0 419.5 L 255.0 412.5 L 252.0 411.5 L 226.5 387.0 L 208.5 363.0 L 205.5 346.0 L 207.5 323.0 L 223.0 302.5 L 232.0 296.5 L 240.0 294.5 L 251.0 294.5 L 265.0 297.5 L 276.0 305.5 L 287.0 308.5 L 297.0 307.5 L 306.0 299.5 L 313.0 296.5 L 336.0 295.5 L 348.0 299.5 L 362.5 313.0 L 370.5 334.0 L 370.5 354.0 L 360.5 377.0 L 351.5 387.0 L 316.0 420.5 L 293.5 436.0 L 293.5 440.0 L 302.5 454.0 L 304.5 481.0 L 310.0 484.5 L 319.5 485.0 Z
    M 290.5 418.0 L 295.0 416.5 L 302.0 408.5 L 318.0 396.5 L 346.5 365.0 L 353.5 349.0 L 353.5 339.0 L 345.5 322.0 L 334.0 312.5 L 317.0 312.5 L 304.0 322.5 L 296.0 331.5 L 289.0 332.5 L 284.0 331.5 L 276.0 322.5 L 261.0 312.5 L 236.0 313.5 L 223.5 328.0 L 223.5 356.0 L 234.5 372.0 L 281.0 416.5 L 285.0 418.5 L 290.5 418.0 Z" fill="#c38a5e" fill-rule="evenodd" clip-rule="evenodd"/>
</svg>
