<?xml version="1.0" encoding="UTF-8" standalone="no"?>
<svg
   width="21.702621"
   height="21.710085"
   viewBox="0 0 21.702621 21.710085"
   fill="none"
   stroke="#d4af37"
   stroke-width="1.8"
   stroke-linecap="round"
   stroke-linejoin="round"
   version="1.1"
   id="svg1"
   xmlns="http://www.w3.org/2000/svg"
   xmlns:svg="http://www.w3.org/2000/svg">
  <defs
     id="defs1" />
  <path
     d="m 20.802493,15.800128 v 3 a 2,2 0 0 1 -2.2,2 19.8,19.8 0 0 1 -8.6,-3.1 19.5,19.5 0 0 1 -5.9999999,-6 A 19.8,19.8 0 0 1 0.90249303,3.0001275 2,2 0 0 1 2.9024931,0.9001276 h 3 a 2,2 0 0 1 2,1.6999999 c 0.1,0.8 0.3,1.6 0.6,2.3 a 2,2 0 0 1 -0.5,2 l -1.2,1 a 16,16 0 0 0 6.9999999,7.0000005 l 1,-1.2 a 2,2 0 0 1 2,-0.5 c 0.7,0.3 1.5,0.5 2.3,0.6 a 2,2 0 0 1 1.7,2 z"
     id="path1" />
</svg>
