<svg xmlns="http://www.w3.org/2000/svg" width="540" height="600" viewBox="0 0 540 600" fill="none">
  <path d="M 274.0 544.5 L 267.0 544.5 L 254.0 540.5 L 243.0 533.5 L 227.0 530.5 L 217.0 523.5 L 203.0 518.5 L 197.0 513.5 L 187.0 509.5 L 181.0 503.5 L 173.0 500.5 L 165.0 492.5 L 161.0 491.5 L 153.0 483.5 L 145.0 479.5 L 131.0 467.5 L 99.5 429.0 L 96.5 421.0 L 89.5 413.0 L 84.5 399.0 L 78.5 391.0 L 75.5 374.0 L 68.5 358.0 L 66.5 337.0 L 66.5 199.0 L 67.5 177.0 L 69.5 171.0 L 80.0 159.5 L 84.0 157.5 L 102.0 156.5 L 117.0 149.5 L 137.0 146.5 L 151.0 138.5 L 163.0 136.5 L 174.0 129.5 L 190.0 125.5 L 199.0 118.5 L 210.0 115.5 L 219.0 108.5 L 226.0 106.5 L 236.0 99.5 L 246.0 95.5 L 253.0 88.5 L 267.0 79.5 L 278.0 80.5 L 284.0 86.5 L 289.0 88.5 L 294.0 94.5 L 306.0 99.5 L 315.0 106.5 L 327.0 110.5 L 335.0 116.5 L 346.0 119.5 L 354.0 125.5 L 370.0 129.5 L 382.0 136.5 L 395.0 138.5 L 409.0 146.5 L 429.0 148.5 L 446.0 155.5 L 459.0 157.5 L 470.5 166.0 L 473.5 173.0 L 472.5 349.0 L 469.5 367.0 L 463.5 380.0 L 461.5 392.0 L 452.5 407.0 L 450.5 415.0 L 421.5 455.0 L 397.0 479.5 L 391.0 482.5 L 384.0 489.5 L 374.0 494.5 L 370.0 499.5 L 361.0 503.5 L 356.0 508.5 L 342.0 514.5 L 338.0 518.5 L 326.0 522.5 L 313.0 530.5 L 299.0 533.5 L 289.0 540.5 L 274.0 544.5 Z
    M 273.5 527.0 L 282.0 525.5 L 293.0 518.5 L 305.0 516.5 L 313.0 510.5 L 326.0 506.5 L 333.0 500.5 L 344.0 496.5 L 351.0 490.5 L 363.0 485.5 L 397.5 456.0 L 416.5 435.0 L 418.5 430.0 L 425.5 424.0 L 430.5 412.0 L 434.5 408.0 L 438.5 395.0 L 445.5 385.0 L 447.5 369.0 L 456.5 341.0 L 457.5 184.0 L 455.5 179.0 L 450.0 173.5 L 431.0 169.5 L 418.0 163.5 L 401.0 161.5 L 387.0 154.5 L 369.0 150.5 L 358.0 143.5 L 345.0 140.5 L 337.0 134.5 L 321.0 128.5 L 314.0 122.5 L 302.0 119.5 L 295.0 112.5 L 280.0 102.5 L 265.0 101.5 L 238.0 120.5 L 228.0 123.5 L 219.0 130.5 L 210.0 132.5 L 199.0 139.5 L 187.0 142.5 L 174.0 150.5 L 160.0 153.5 L 148.0 160.5 L 128.0 163.5 L 114.0 170.5 L 96.0 171.5 L 91.0 173.5 L 84.5 180.0 L 82.5 185.0 L 82.5 335.0 L 83.5 345.0 L 91.5 367.0 L 93.5 382.0 L 100.5 392.0 L 103.5 405.0 L 109.5 412.0 L 112.5 420.0 L 141.5 454.0 L 154.0 465.5 L 159.0 467.5 L 167.0 475.5 L 177.0 480.5 L 194.0 494.5 L 208.0 499.5 L 215.0 505.5 L 229.0 509.5 L 237.0 515.5 L 253.0 519.5 L 261.0 525.5 L 273.5 527.0 Z
    M 274.0 410.5 L 262.0 408.5 L 214.5 369.0 L 200.5 355.0 L 179.5 329.0 L 175.5 316.0 L 169.5 306.0 L 167.5 292.0 L 168.5 274.0 L 176.5 260.0 L 194.0 242.5 L 203.0 236.5 L 219.0 231.5 L 233.0 231.5 L 254.0 238.5 L 264.0 246.5 L 275.0 248.5 L 287.0 238.5 L 292.0 236.5 L 308.0 231.5 L 323.0 232.5 L 343.0 239.5 L 359.5 256.0 L 367.5 273.0 L 370.5 285.0 L 370.5 299.0 L 359.5 329.0 L 353.5 335.0 L 347.5 346.0 L 324.0 370.5 L 274.0 410.5 Z
    M 273.5 389.0 L 282.0 385.5 L 315.0 356.5 L 319.5 350.0 L 325.0 346.5 L 336.5 334.0 L 337.5 330.0 L 344.5 322.0 L 351.5 297.0 L 351.5 285.0 L 346.5 267.0 L 333.0 253.5 L 319.0 250.5 L 296.0 252.5 L 277.0 270.5 L 269.0 269.5 L 260.0 261.5 L 241.0 251.5 L 221.0 249.5 L 208.0 252.5 L 193.5 265.0 L 185.5 287.0 L 185.5 298.0 L 192.5 320.0 L 212.5 344.0 L 247.0 375.5 L 261.0 386.5 L 269.0 389.5 L 273.5 389.0 Z" fill="#f0b25e" fill-rule="evenodd" clip-rule="evenodd"/>
</svg>
