<svg width="64" height="64" viewBox="0 0 64 64" fill="none" xmlns="http://www.w3.org/2000/svg"><defs><linearGradient id="g" x1="8" y1="6" x2="56" y2="58"><stop stop-color="#F1D17A"/><stop offset=".5" stop-color="#C6923E"/><stop offset="1" stop-color="#F1D17A"/></linearGradient></defs><rect x="5" y="5" width="54" height="54" rx="17" stroke="url(#g)" stroke-width="2"/><rect x="8" y="8" width="48" height="48" rx="14" stroke="url(#g)" stroke-width=".8" opacity=".75"/><path d="M50 17.4 12.9 31.7c-2.5 1-2.5 2.4-.5 3l9.5 3 3.7 11.6c.5 1.5 1 2 2 2 1.3 0 1.9-.6 2.7-1.3l6.4-6.2 9.4 7c1.7.9 3 .4 3.4-1.6l6.2-29.4c.6-2.6-1-3.8-2.7-2.9Zm-7.8 6.8L27.5 37.4l-.6 7.7-2.9-9.2 18.2-11.7Z" fill="url(#g)"/></svg>
