<svg width="64" height="64" viewBox="0 0 64 64" fill="none" xmlns="http://www.w3.org/2000/svg"><defs><linearGradient id="g" x1="8" y1="6" x2="56" y2="58"><stop stop-color="#F1D17A"/><stop offset=".5" stop-color="#C6923E"/><stop offset="1" stop-color="#F1D17A"/></linearGradient></defs><rect x="5" y="5" width="54" height="54" rx="17" stroke="url(#g)" stroke-width="2"/><rect x="8" y="8" width="48" height="48" rx="14" stroke="url(#g)" stroke-width=".8" opacity=".75"/><path d="M18 25.5h5.4c.8 0 1.1.4 1.5 1.2 2 5 4.2 7.5 5.3 7.1.9-.3.7-2.7.7-4.7 0-1.3-.2-1.8-1.1-2.4-.5-.4-.4-1.2.4-1.2h6.5c1 0 1.4.5 1.4 1.4v5.7c0 .7.3 1 .9.5 1.5-1.2 3.4-4.3 4.5-6.5.4-.8.8-1.1 1.8-1.1h5.1c1 0 1.3.6.8 1.4-1.2 2.6-3.4 5.8-5.1 7.7-.5.6-.6 1 .1 1.7 1.9 1.7 4.2 4.1 5.6 6.6.5.9.1 1.6-.9 1.6h-5.8c-.9 0-1.4-.3-2-1-1.3-1.6-3-3.8-4.4-3.8-.8 0-1.1.7-1.1 1.7v1.7c0 1-.4 1.4-1.4 1.4-8.2 0-13.7-5.5-18.4-17.3-.3-.9 0-1.5 1-1.5Z" fill="url(#g)"/></svg>
